<?xml version="1.0" standalone="no"?>
<!DOCTYPE svg PUBLIC "-//W3C//DTD SVG 20010904//EN"
 "http://www.w3.org/TR/2001/REC-SVG-20010904/DTD/svg10.dtd">
<svg version="1.0" xmlns="http://www.w3.org/2000/svg"
 width="512.000000pt" height="512.000000pt" viewBox="0 0 512.000000 512.000000"
 preserveAspectRatio="xMidYMid meet">

<g transform="translate(0.000000,512.000000) scale(0.100000,-0.100000)"
fill="#000000" stroke="none">
<path d="M1970 3663 c-41 -13 -89 -35 -106 -48 -17 -13 -81 -87 -142 -164
l-111 -140 42 -38 c23 -21 57 -51 76 -66 33 -27 33 -29 22 -66 -13 -45 -14
-62 -3 -59 4 2 22 -6 40 -17 24 -14 32 -26 32 -47 0 -33 1 -33 -45 -11 -26 12
-35 23 -36 42 -1 20 -3 16 -11 -14 -5 -22 -8 -98 -5 -170 5 -139 21 -208 78
-334 l29 -64 46 45 c97 97 258 145 449 134 60 -3 123 -9 138 -12 l28 -7 -7 75
c-4 46 -3 82 4 93 7 14 6 23 -5 33 -12 12 -12 17 -1 24 10 8 10 9 -2 5 -8 -2
-14 -9 -13 -15 1 -6 -7 -7 -20 -4 -27 7 -134 69 -142 82 -3 6 -19 10 -36 10
-25 0 -29 4 -29 27 0 56 -14 9 -20 -65 l-5 -77 -30 3 c-16 1 -65 8 -108 14
l-79 12 6 30 c3 17 8 56 11 86 4 30 8 65 11 78 4 20 3 21 -16 10 -18 -12 -23
-10 -45 17 -13 17 -24 32 -24 35 -1 11 102 80 118 80 10 0 27 -11 39 -25 25
-29 48 -34 37 -7 -55 130 -74 255 -58 378 9 72 8 83 -11 120 l-21 42 -75 -25z"/>
<path d="M2342 3673 c-52 -21 -141 -26 -199 -10 -42 11 -53 11 -53 1 0 -17 58
-74 87 -85 65 -25 140 1 186 62 27 37 19 49 -21 32z"/>
<path d="M3504 3345 c-16 -13 -17 -16 -4 -24 11 -8 17 -5 23 11 10 27 5 31
-19 13z"/>
<path d="M2826 3301 c-9 -10 -16 -31 -14 -47 3 -44 -9 -57 -35 -39 -35 24 -45
18 -77 -45 -25 -49 -28 -61 -16 -66 8 -3 12 -12 9 -20 -3 -10 -10 -11 -22 -4
-14 7 -21 2 -34 -25 l-17 -35 71 -36 c40 -19 202 -105 361 -190 159 -85 293
-154 297 -154 5 0 14 14 21 30 11 27 11 32 -5 44 -18 13 -18 14 2 24 11 6 23
8 27 5 3 -3 6 -2 6 4 0 6 -7 13 -15 17 -8 3 -15 1 -15 -5 0 -6 -9 -8 -20 -4
-11 4 -20 2 -20 -4 0 -6 -4 -11 -9 -11 -6 0 -586 304 -598 314 -1 1 1 7 5 13
5 7 78 -27 212 -98 113 -59 211 -106 218 -104 7 3 11 1 8 -3 -2 -4 30 -27 73
-50 53 -28 78 -37 78 -28 0 8 -6 12 -15 8 -11 -4 -13 -1 -7 8 5 9 4 11 -3 6
-7 -4 -12 -3 -12 3 0 5 -26 24 -57 41 -122 65 -268 195 -287 258 -4 12 -21 29
-37 37 -36 19 -37 34 -1 65 27 24 37 26 148 28 65 2 180 7 254 12 74 6 145 10
158 10 18 0 22 6 22 30 0 25 -4 30 -25 30 -18 0 -25 -5 -25 -19 0 -15 -11 -19
-67 -24 -101 -10 -218 -8 -313 4 -47 6 -95 12 -108 13 -12 2 -28 8 -34 14 -18
18 -63 14 -82 -7z"/>
<path d="M3410 3090 c-63 -127 -79 -165 -68 -172 48 -32 43 -38 128 132 44 88
80 162 80 165 0 3 -9 5 -20 5 -10 0 -23 8 -28 17 -8 13 -27 -17 -92 -147z"/>
<path d="M3560 3230 c0 -5 5 -10 11 -10 5 0 7 5 4 10 -3 6 -8 10 -11 10 -2 0
-4 -4 -4 -10z"/>
<path d="M3130 3198 c-11 -18 -20 -42 -19 -53 0 -11 3 -14 6 -7 2 6 9 10 14 7
5 -4 6 0 3 8 -3 8 -1 18 5 22 6 3 16 -6 21 -21 6 -15 13 -24 17 -20 3 3 1 17
-6 30 -10 18 -10 29 -2 45 20 36 -16 26 -39 -11z"/>
<path d="M3066 3211 c-4 -7 -15 -10 -25 -6 -12 5 -13 3 -4 -6 6 -6 9 -19 6
-28 -4 -11 1 -8 16 7 12 12 21 28 19 34 -3 9 -6 9 -12 -1z"/>
<path d="M2640 3196 c0 -2 8 -10 18 -17 15 -13 16 -12 3 4 -13 16 -21 21 -21
13z"/>
<path d="M3238 3154 c-11 -11 -10 -84 1 -84 15 0 17 12 11 53 -3 22 -8 35 -12
31z"/>
<path d="M2631 2964 c0 -11 3 -14 6 -6 3 7 2 16 -1 19 -3 4 -6 -2 -5 -13z"/>
<path d="M2591 2944 c0 -11 3 -14 6 -6 3 7 2 16 -1 19 -3 4 -6 -2 -5 -13z"/>
<path d="M2559 2875 c-1 -3 -2 -11 -3 -17 -1 -7 -11 -13 -23 -13 -23 0 -31
-11 -17 -23 4 -4 4 -1 0 5 -5 9 -1 12 11 11 57 -5 83 2 83 22 0 15 -7 20 -25
20 -14 0 -26 -2 -26 -5z"/>
<path d="M2515 2860 c28 -12 37 -12 30 0 -3 6 -16 10 -28 9 -21 0 -21 -1 -2
-9z"/>
<path d="M2660 2860 c-9 -6 -10 -10 -3 -10 6 0 15 5 18 10 8 12 4 12 -15 0z"/>
<path d="M2704 2757 c4 -18 4 -18 -14 -2 -16 14 -29 16 -77 10 l-58 -8 45 -14
c85 -27 400 -29 400 -4 0 8 -95 28 -139 29 -14 1 -31 -8 -38 -18 -19 -26 -37
-26 -23 -1 15 28 15 28 -46 27 -49 0 -55 -3 -50 -19z"/>
<path d="M3066 2718 c-11 -57 -8 -70 13 -58 37 19 97 12 133 -17 32 -26 32
-26 10 -2 -12 14 -19 29 -15 34 5 4 2 5 -4 1 -7 -4 -13 -3 -13 3 0 6 -7 7 -17
4 -11 -4 -14 -3 -9 5 5 8 1 10 -10 5 -11 -4 -15 -2 -11 4 4 6 -3 8 -18 5 -16
-3 -25 0 -25 8 0 7 7 10 15 6 26 -10 16 3 -14 18 -28 15 -29 15 -35 -16z"/>
<path d="M2520 2680 c0 -44 4 -59 16 -64 29 -11 34 -6 34 32 l0 37 83 -2 82
-2 -65 13 c-36 8 -84 21 -107 29 l-43 15 0 -58z"/>
<path d="M2135 2610 c-66 -14 -149 -48 -199 -84 -83 -58 -122 -128 -141 -251
l-7 -40 45 61 c71 96 202 189 323 228 45 15 51 19 47 40 -5 23 -3 24 94 30 65
4 121 1 168 -8 39 -8 59 -15 45 -16 -14 -2 0 -6 30 -10 30 -4 69 -10 85 -14
17 -3 -1 5 -40 19 -132 48 -334 68 -450 45z"/>
<path d="M3066 2571 c-22 -23 -30 -46 -43 -125 -18 -105 -14 -118 31 -118 41
0 72 27 105 93 32 64 40 124 21 160 -17 31 -80 26 -114 -10z m99 -61 c0 -48
-3 -55 -21 -58 -15 -2 -23 4 -27 18 -4 14 -10 19 -18 14 -8 -4 -10 -3 -5 5 4
6 12 9 17 6 5 -3 6 1 3 9 -3 9 -10 14 -14 11 -4 -2 -7 5 -6 16 1 24 24 40 51
37 17 -3 20 -11 20 -58z m-98 -62 c-3 -8 -6 -5 -6 6 -1 11 2 17 5 13 3 -3 4
-12 1 -19z"/>
<path d="M2283 2563 c9 -2 25 -2 35 0 9 3 1 5 -18 5 -19 0 -27 -2 -17 -5z"/>
<path d="M2238 2553 c7 -3 16 -2 19 1 4 3 -2 6 -13 5 -11 0 -14 -3 -6 -6z"/>
<path d="M3250 2506 c0 -67 -58 -170 -123 -217 -34 -25 -50 -30 -86 -27 l-45
2 -13 -69 c-9 -49 -19 -75 -34 -88 -12 -10 -19 -21 -15 -24 11 -11 40 11 57
44 8 17 45 56 81 86 72 62 162 175 202 254 22 44 23 52 10 57 -27 10 -34 7
-34 -18z"/>
<path d="M2678 2439 c-21 -5 -56 -21 -78 -35 -92 -61 -119 -213 -54 -306 63
-93 197 -120 302 -63 l52 28 0 94 0 93 -85 0 -85 0 0 -35 0 -35 50 0 50 0 0
-39 c0 -34 -4 -40 -32 -52 -104 -43 -208 22 -208 130 0 57 27 110 68 134 42
25 113 24 157 -1 l34 -21 20 32 c20 31 20 31 -1 45 -25 18 -104 42 -132 41
-12 -1 -38 -5 -58 -10z"/>
<path d="M2238 2393 c-12 -27 -54 -122 -93 -213 l-72 -165 35 -3 c19 -2 38 0
43 5 4 4 38 79 75 166 36 87 70 155 74 150 5 -4 20 -37 35 -73 15 -36 29 -71
32 -77 4 -10 -10 -13 -49 -13 -49 0 -56 -3 -66 -25 -7 -14 -12 -30 -12 -34 0
-4 35 -9 77 -10 42 -1 80 -4 83 -6 4 -2 12 -22 20 -44 13 -40 15 -41 57 -41
l43 0 -13 33 c-8 17 -49 114 -93 215 l-78 182 -39 0 c-36 0 -39 -3 -59 -47z"/>
<path d="M912 1833 c-5 -15 -26 -65 -46 -111 -34 -80 -35 -83 -14 -80 16 2 30
22 57 87 l35 84 17 -39 c23 -52 23 -54 -5 -54 -13 0 -26 -7 -30 -15 -4 -12 3
-15 30 -15 27 0 37 -5 46 -25 10 -23 48 -36 48 -17 0 5 -19 53 -43 108 -33 75
-48 100 -64 102 -15 2 -23 -5 -31 -25z"/>
<path d="M1104 1826 c-28 -28 -34 -42 -34 -76 0 -52 13 -76 50 -95 37 -19 83
-19 120 0 26 14 30 21 30 60 l0 45 -45 0 c-33 0 -45 -4 -45 -15 0 -9 9 -15 25
-15 20 0 25 -5 25 -24 0 -19 -7 -26 -31 -31 -68 -15 -119 75 -70 124 23 23 80
28 98 10 8 -8 14 -6 22 9 9 18 7 22 -21 31 -56 20 -87 14 -124 -23z"/>
<path d="M1400 1751 c0 -104 1 -111 20 -111 16 0 20 7 20 35 0 34 1 35 39 35
77 0 117 66 72 121 -15 19 -30 24 -85 27 l-66 4 0 -111z m118 57 c30 -30 1
-68 -52 -68 -24 0 -26 4 -26 40 0 39 1 40 33 40 18 0 38 -5 45 -12z"/>
<path d="M1610 1750 l0 -110 80 0 c73 0 80 2 80 20 0 18 -7 20 -60 20 -57 0
-60 1 -60 25 0 24 3 25 55 25 48 0 55 2 55 20 0 18 -7 20 -55 20 -52 0 -55 1
-55 25 0 24 3 25 60 25 53 0 60 2 60 20 0 18 -7 20 -80 20 l-80 0 0 -110z"/>
<path d="M1818 1854 c-5 -4 -8 -54 -8 -111 0 -95 1 -103 19 -103 15 0 20 8 23
37 4 54 37 55 73 3 19 -28 35 -40 52 -40 l23 0 -26 40 -27 41 21 15 c28 20 30
74 2 99 -20 18 -139 34 -152 19z m127 -69 c0 -29 -2 -30 -47 -33 l-48 -3 0 36
0 36 48 -3 c45 -3 47 -4 47 -33z"/>
<path d="M2050 1840 c-20 -20 -25 -45 -14 -74 3 -8 28 -22 55 -31 55 -19 66
-30 49 -50 -16 -19 -37 -19 -72 -1 -22 12 -29 12 -38 1 -16 -19 13 -37 69 -43
43 -4 50 -1 69 23 12 15 22 34 22 41 0 23 -37 52 -79 64 -30 8 -41 16 -41 30
0 16 7 20 33 20 18 0 38 -5 44 -11 8 -8 14 -6 22 9 9 18 7 22 -21 31 -46 16
-76 13 -98 -9z"/>
<path d="M2274 1844 c-104 -51 -63 -204 54 -204 112 0 149 163 48 205 -44 19
-63 18 -102 -1z m100 -43 c28 -30 24 -80 -8 -108 -33 -28 -46 -29 -80 -2 -31
24 -36 81 -9 111 21 24 75 23 97 -1z"/>
<path d="M2480 1750 c0 -103 1 -110 20 -110 17 0 19 8 22 72 l3 72 55 -72 c32
-42 62 -72 73 -72 16 0 17 10 15 108 -2 87 -6 107 -18 107 -11 0 -16 -17 -20
-70 l-5 -70 -55 72 c-30 40 -63 72 -72 72 -16 1 -18 -11 -18 -109z"/>
<path d="M2752 1767 c-59 -133 -57 -127 -34 -127 15 0 27 18 53 80 18 44 35
80 39 80 6 0 30 -59 30 -73 0 -4 -11 -7 -25 -7 -16 0 -25 -6 -25 -15 0 -10 11
-15 35 -15 29 0 37 -5 45 -25 6 -15 17 -25 30 -25 11 0 20 1 20 3 0 1 -20 50
-44 107 -59 140 -69 142 -124 17z"/>
<path d="M2950 1750 l0 -110 80 0 c73 0 80 2 80 20 0 18 -7 20 -60 20 l-60 0
0 90 c0 83 -1 90 -20 90 -19 0 -20 -7 -20 -110z"/>
<path d="M3140 1750 c0 -103 1 -110 20 -110 19 0 20 7 20 110 0 103 -1 110
-20 110 -19 0 -20 -7 -20 -110z"/>
<path d="M3230 1840 c0 -16 8 -19 56 -22 l56 -3 -56 -70 c-78 -98 -77 -105 29
-105 78 0 85 2 85 20 0 18 -7 20 -60 20 l-61 0 61 72 c84 100 82 108 -25 108
-78 0 -85 -2 -85 -20z"/>
<path d="M3484 1783 c-67 -147 -67 -145 -42 -141 16 2 29 21 51 73 16 39 33
74 37 79 5 5 16 -8 24 -29 20 -47 20 -45 -8 -45 -13 0 -26 -7 -30 -15 -4 -12
3 -15 33 -15 33 0 40 -4 45 -25 5 -18 13 -25 30 -25 24 0 24 0 -22 110 -59
138 -69 140 -118 33z"/>
<path d="M3680 1749 l0 -111 65 4 c55 3 69 8 95 33 24 23 30 37 30 70 0 73
-53 115 -145 115 l-45 0 0 -111z m130 51 c45 -45 11 -120 -55 -120 l-35 0 0
70 0 70 35 0 c22 0 43 -8 55 -20z"/>
<path d="M3966 1845 c-55 -29 -75 -83 -52 -140 37 -89 175 -83 206 9 31 96
-65 177 -154 131z m97 -42 c8 -10 19 -30 22 -45 6 -22 1 -33 -23 -58 -36 -35
-50 -37 -86 -9 -35 27 -37 90 -4 113 30 21 71 20 91 -1z"/>
<path d="M4185 1835 c-42 -41 -26 -78 46 -104 46 -17 56 -36 27 -55 -13 -7
-26 -6 -52 6 -31 15 -35 15 -40 1 -7 -18 -8 -16 21 -32 35 -18 90 -14 113 9
40 40 21 78 -53 110 -29 12 -47 25 -45 33 6 16 52 21 77 8 15 -8 20 -7 25 5 8
22 9 21 -25 33 -48 16 -67 14 -94 -14z"/>
<path d="M2516 1551 c-3 -4 6 -8 20 -9 13 -1 24 0 24 2 0 7 -40 14 -44 7z"/>
<path d="M1717 1523 c-17 -16 -5 -42 23 -52 30 -10 39 -25 20 -34 -6 -3 -5 -4
2 -3 28 6 20 36 -12 47 -34 12 -35 34 -2 33 12 0 19 3 16 8 -6 10 -38 11 -47
1z"/>
<path d="M1802 1495 c-1 -22 2 -45 6 -51 12 -18 39 -23 57 -11 19 15 30 72 15
82 -6 4 -10 -8 -10 -33 0 -72 -56 -60 -63 13 l-4 40 -1 -40z"/>
<path d="M1910 1480 l0 -50 39 0 c38 0 63 22 40 36 -5 3 -7 15 -3 26 7 24 -10
38 -48 38 -27 0 -28 -2 -28 -50z m65 20 c0 -9 -11 -16 -27 -18 -23 -3 -28 1
-28 18 0 17 5 21 28 18 16 -2 27 -9 27 -18z m10 -45 c0 -5 -15 -11 -32 -13
-25 -3 -33 1 -33 13 0 12 8 16 33 13 17 -2 32 -7 32 -13z"/>
<path d="M2022 1483 l-2 -53 38 2 c36 1 36 1 5 5 -30 4 -32 7 -36 51 l-3 47
-2 -52z"/>
<path d="M2113 1480 c0 -30 2 -43 4 -27 2 15 2 39 0 55 -2 15 -4 2 -4 -28z"/>
<path d="M2152 1473 c1 -54 2 -55 5 -13 l4 45 19 -25 19 -25 18 25 18 25 6
-45 6 -45 1 58 c1 31 -1 57 -5 57 -5 0 -16 -15 -26 -32 l-18 -32 -21 32 c-11
18 -22 32 -24 32 -2 0 -3 -26 -2 -57z"/>
<path d="M2295 1488 c-24 -61 -29 -76 -15 -55 6 10 23 17 40 17 17 0 34 -7 40
-17 14 -23 10 -10 -15 50 -11 26 -23 47 -26 47 -4 0 -15 -19 -24 -42z m45 -20
c0 -4 -9 -8 -20 -8 -21 0 -24 8 -13 36 6 16 7 16 20 -2 7 -10 13 -21 13 -26z"/>
<path d="M2396 1508 c-22 -32 -20 -45 13 -77 16 -16 28 -32 25 -35 -2 -3 1 -2
8 3 8 7 2 18 -20 40 -18 16 -32 33 -32 38 0 16 24 41 45 46 18 4 18 5 -2 6
-12 0 -29 -9 -37 -21z"/>
<path d="M2511 1478 c-12 -29 -16 -47 -9 -40 16 16 65 16 71 0 4 -10 6 -10 6
0 1 13 -36 92 -43 92 -2 0 -13 -24 -25 -52z m49 -10 c0 -4 -9 -8 -20 -8 -21 0
-24 8 -13 36 6 16 7 16 20 -2 7 -10 13 -21 13 -26z"/>
<path d="M2615 1510 c-15 -16 -17 -26 -9 -47 5 -14 16 -29 24 -31 11 -4 10 0
-3 13 -21 21 -19 54 6 69 39 24 79 -44 41 -71 -10 -7 -13 -13 -8 -13 33 0 45
57 18 84 -21 22 -47 20 -69 -4z"/>
<path d="M2788 1518 c-34 -28 -26 -81 14 -91 l23 -6 -22 16 c-43 29 -19 93 28
78 14 -5 19 -4 15 4 -9 15 -38 14 -58 -1z"/>
<path d="M2881 1478 c1 -29 4 -43 6 -30 6 28 27 28 47 0 9 -12 16 -17 16 -11
0 7 -5 15 -11 18 -6 5 -4 12 8 20 25 19 5 49 -36 53 l-31 3 1 -53z m64 22 c0
-9 -11 -16 -27 -18 -23 -3 -28 1 -28 18 0 17 5 21 28 18 16 -2 27 -9 27 -18z"/>
<path d="M2983 1480 c0 -30 2 -43 4 -27 2 15 2 39 0 55 -2 15 -4 2 -4 -28z"/>
<path d="M3042 1484 c-13 -26 -20 -49 -17 -52 3 -3 5 0 5 6 0 7 15 12 35 12
20 0 35 -5 35 -12 0 -6 3 -9 6 -5 5 5 -31 97 -38 97 -2 0 -14 -21 -26 -46z
m41 -4 c4 -15 0 -20 -14 -20 -20 0 -23 8 -13 34 7 20 20 13 27 -14z"/>
<path d="M3132 1523 c12 -3 18 -18 21 -51 l3 -47 2 47 c2 40 5 47 25 51 12 2
2 4 -23 4 -25 1 -37 -1 -28 -4z"/>
<path d="M3223 1475 c0 -33 2 -45 4 -27 2 18 2 45 0 60 -2 15 -4 0 -4 -33z"/>
<path d="M3261 1525 c-2 -16 31 -95 39 -95 5 0 0 17 -10 38 -9 20 -20 44 -23
52 -3 8 -6 11 -6 5z"/>
<path d="M3325 1493 c-8 -20 -13 -38 -10 -41 3 -3 5 -3 5 0 0 3 7 22 15 42 8
20 13 36 10 36 -2 0 -12 -16 -20 -37z"/>
<path d="M3396 1514 c-4 -9 -4 -19 -1 -22 3 -3 5 1 5 9 1 10 5 8 15 -5 8 -11
15 -23 15 -28 0 -13 -40 -9 -40 5 -1 14 -29 -33 -29 -48 0 -5 4 -2 10 8 12 20
65 23 72 5 4 -10 6 -10 6 0 1 13 -36 92 -43 92 -2 0 -7 -7 -10 -16z"/>
<path d="M1710 1440 c0 -6 7 -10 15 -10 8 0 15 2 15 4 0 2 -7 6 -15 10 -8 3
-15 1 -15 -4z"/>
<path d="M2455 1440 c-3 -5 -1 -10 4 -10 6 0 11 5 11 10 0 6 -2 10 -4 10 -3 0
-8 -4 -11 -10z"/>
<path d="M2835 1440 c-3 -5 -1 -10 4 -10 6 0 11 5 11 10 0 6 -2 10 -4 10 -3 0
-8 -4 -11 -10z"/>
<path d="M1783 1363 c9 -2 23 -2 30 0 6 3 -1 5 -18 5 -16 0 -22 -2 -12 -5z"/>
<path d="M1852 1358 c-18 -18 -15 -26 18 -43 35 -18 30 -39 -7 -32 -16 3 -21
1 -15 -5 15 -15 56 -5 60 15 3 12 -6 21 -27 28 -35 12 -39 23 -13 38 9 6 12
11 7 11 -6 0 -16 -5 -23 -12z"/>
<path d="M2037 1364 c-10 -11 -9 -26 2 -20 5 3 14 -8 20 -26 6 -17 14 -29 17
-26 3 4 -3 22 -13 42 -10 20 -22 34 -26 30z"/>
<path d="M2111 1318 c2 -52 2 -52 8 -13 6 40 6 40 20 16 l14 -25 17 22 c10 11
20 18 24 15 3 -4 6 5 6 18 0 23 -2 22 -22 -9 l-21 -34 -19 31 c-11 17 -22 31
-24 31 -2 0 -3 -24 -3 -52z"/>
<path d="M2231 1318 c1 -29 3 -45 6 -36 2 9 12 19 21 21 15 4 15 5 0 6 -12 1
-18 9 -18 25 0 15 7 26 18 29 13 4 11 5 -5 6 -21 1 -23 -3 -22 -51z"/>
<path d="M2332 1324 c-13 -26 -21 -48 -19 -51 3 -2 13 15 24 37 l19 41 18 -41
c10 -23 20 -39 22 -37 4 4 -34 97 -39 97 -2 0 -13 -21 -25 -46z"/>
<path d="M2427 1363 c-15 -14 -6 -33 23 -48 34 -18 30 -39 -6 -32 -13 2 -21 0
-18 -4 8 -14 40 -10 54 6 10 12 7 18 -19 32 -38 22 -42 47 -6 41 13 -3 22 -1
19 3 -6 11 -38 12 -47 2z"/>
<path d="M2600 1357 c29 -14 37 -41 20 -62 -30 -37 -82 3 -60 45 6 11 8 20 6
20 -15 0 -26 -41 -16 -59 12 -24 71 -56 63 -35 -3 8 -1 14 5 14 6 0 12 -5 14
-11 2 -7 4 6 5 27 1 42 -19 74 -46 74 -10 0 -7 -5 9 -13z"/>
<path d="M2664 1331 c2 -84 70 -84 72 0 l2 44 -7 -45 c-5 -40 -9 -45 -31 -45
-22 0 -26 5 -31 45 l-7 45 2 -44z"/>
<path d="M2770 1320 l0 -50 38 2 c36 1 36 1 5 5 -40 5 -44 30 -5 36 l27 4 -27
2 c-21 1 -28 6 -28 20 0 14 8 21 28 24 25 4 25 4 -5 6 l-33 1 0 -50z"/>
<path d="M2907 1363 c-4 -3 -7 -26 -7 -50 0 -41 2 -43 29 -43 16 0 34 6 40 14
16 19 10 68 -9 74 -13 4 -13 3 -2 -11 23 -27 11 -62 -22 -65 -28 -3 -28 -3
-24 42 2 25 3 46 2 46 0 0 -4 -3 -7 -7z"/>
<path d="M3111 1318 c1 -29 4 -43 6 -30 5 27 29 29 45 2 7 -11 17 -20 22 -20
5 0 1 9 -9 20 -10 11 -13 20 -8 20 6 0 14 8 18 18 5 14 4 15 -6 5 -7 -7 -23
-13 -36 -13 -31 0 -32 37 0 43 19 4 18 4 -5 6 -27 1 -28 0 -27 -51z"/>
<path d="M3240 1366 c0 -7 52 -96 56 -96 2 0 -7 23 -21 50 -22 43 -35 60 -35
46z"/>
<path d="M3382 1340 l-17 -29 -22 27 -22 27 1 -50 c1 -43 2 -45 5 -12 l4 38
18 -23 18 -22 14 25 c14 24 14 24 20 -16 6 -39 6 -39 8 13 0 28 -1 52 -4 52
-3 0 -14 -13 -23 -30z"/>
<path d="M1751 1318 l-1 -48 38 2 c36 1 36 1 5 5 -40 5 -44 30 -5 36 l27 4
-27 2 c-19 1 -28 7 -31 24 -2 12 -5 1 -6 -25z"/>
<path d="M2285 1335 c0 -13 3 -21 8 -18 4 2 7 10 7 18 0 8 -3 16 -7 18 -5 3
-8 -5 -8 -18z"/>
<path d="M3001 1334 c-1 -41 19 -67 50 -62 21 3 24 8 25 48 l2 45 -7 -40 c-5
-31 -11 -41 -28 -43 -17 -2 -24 3 -27 20 -3 13 -7 32 -9 43 -3 13 -5 9 -6 -11z"/>
<path d="M2192 1295 c0 -16 2 -22 5 -12 2 9 2 23 0 30 -3 6 -5 -1 -5 -18z"/>
<path d="M3211 1293 c-10 -26 -10 -27 4 -9 8 11 15 23 15 28 0 15 -7 8 -19
-19z"/>
<path d="M2006 1295 c-9 -26 -7 -32 5 -12 6 10 9 21 6 23 -2 3 -7 -2 -11 -11z"/>
</g>
</svg>
